<?xml version="1.0"?>
<svg width="450" height="450" xmlns="http://www.w3.org/2000/svg" xmlns:svg="http://www.w3.org/2000/svg">
 <!--!Font Awesome Free 6.7.2 by @fontawesome - https://fontawesome.com License - https://fontawesome.com/license/free Copyright 2025 Fonticons, Inc.-->
 <g class="layer">
  <title>Layer 1</title>
  <path d="m64,330a56,56 0 1 0 0,112a56,56 0 1 0 0,-112zm0,-160a56,56 0 1 0 0,112a56,56 0 1 0 0,-112zm56,-104a56,56 0 1 0 -112,0a56,56 0 1 0 112,0z" id="svg_1"/>
  <path d="m227,330a56,56 0 1 0 0,112a56,56 0 1 0 0,-112zm0,-160a56,56 0 1 0 0,112a56,56 0 1 0 0,-112zm56,-104a56,56 0 1 0 -112,0a56,56 0 1 0 112,0z" id="svg_3"/>
  <path d="m387,330a56,56 0 1 0 0,112a56,56 0 1 0 0,-112zm0,-160a56,56 0 1 0 0,112a56,56 0 1 0 0,-112zm56,-104a56,56 0 1 0 -112,0a56,56 0 1 0 112,0z" id="svg_4"/>
 </g>
</svg>