<svg width="100" height="100" viewBox="0 0 280 280" fill="none" xmlns="http://www.w3.org/2000/svg">
<rect width="280" height="280" fill="#001218"/>
<path d="M77.002 221.536C67.786 221.536 60.4473 219.488 54.986 215.392C49.5247 211.296 45.77 205.749 43.722 198.752C41.674 191.584 40.9913 183.477 41.674 174.432C41.8447 172.725 42.442 171.872 43.466 171.872H56.266C57.6313 171.872 58.2287 172.725 58.058 174.432C56.8633 184.843 57.9727 192.608 61.386 197.728C64.97 202.848 70.4313 205.408 77.77 205.408C84.426 205.408 89.3753 203.445 92.618 199.52C96.0313 195.424 97.738 189.109 97.738 180.576C97.738 173.067 96.714 166.923 94.666 162.144C92.618 157.195 89.034 152.843 83.914 149.088L63.178 132.704C56.1807 127.243 50.9753 121.099 47.562 114.272C44.3193 107.275 42.698 98.912 42.698 89.184C42.8687 77.0667 45.9407 67.68 51.914 61.024C58.058 54.1973 66.506 50.784 77.258 50.784C89.8873 50.784 99.1033 54.88 104.906 63.072C110.879 71.264 113.183 82.4427 111.818 96.608C111.818 98.4853 111.221 99.424 110.026 99.424H96.97C95.7753 99.424 95.2633 98.4853 95.434 96.608C96.458 87.0507 95.3487 79.712 92.106 74.592C88.8633 69.472 83.9993 66.912 77.514 66.912C72.0527 66.912 67.7007 68.704 64.458 72.288C61.2153 75.872 59.5087 81.3333 59.338 88.672C59.338 95.4987 60.5327 101.301 62.922 106.08C65.3113 110.859 68.9807 115.211 73.93 119.136L93.898 134.752C98.8473 138.507 102.773 142.517 105.674 146.784C108.746 150.88 110.965 155.659 112.33 161.12C113.695 166.411 114.378 172.64 114.378 179.808C114.378 192.779 111.306 203.019 105.162 210.528C99.1887 217.867 89.802 221.536 77.002 221.536ZM134.3 220C133.276 220 132.764 219.232 132.764 217.696L134.812 54.624C134.812 53.088 135.495 52.32 136.86 52.32H156.828C158.193 52.32 158.961 52.9173 159.132 54.112L183.452 154.208L208.028 54.112C208.199 52.9173 208.967 52.32 210.332 52.32H230.3C231.495 52.32 232.092 53.088 232.092 54.624L234.396 217.696C234.396 219.232 233.799 220 232.604 220H219.804C218.439 220 217.756 219.232 217.756 217.696L216.732 110.176C216.732 105.227 216.732 99.7653 216.732 93.792C216.732 87.8187 216.817 82.1013 216.988 76.64H216.732C215.708 81.9307 214.513 87.2213 213.148 92.512C211.783 97.8027 210.417 103.008 209.052 108.128L186.268 194.656C186.097 195.851 185.329 196.448 183.964 196.448H182.94C181.745 196.448 181.063 195.851 180.892 194.656L157.596 107.872C156.231 102.752 154.951 97.632 153.756 92.512C152.561 87.2213 151.452 81.9307 150.428 76.64H149.916C150.257 82.1013 150.428 87.8187 150.428 93.792C150.428 99.5947 150.428 104.971 150.428 109.92L149.148 217.696C149.148 219.232 148.551 220 147.356 220H134.3Z" fill="#D91254"/>
<path d="M101.2 129.2L93.56 110.44H97.16L103.08 126.12H102.32L102.48 125.56L107.92 110.44H109.56L102.48 129.2H101.2ZM92.08 111.56V110.44H101.08V111.52L96.68 112.12H95.76L92.08 111.56ZM104.4 111.52V110.44H111.16V111.56L108.52 112.04H107.88L104.4 111.52Z" fill="#D91254"/>
<path d="M115.604 137.468C114.26 137.468 113.06 137.12 112.004 136.424C110.948 135.728 110.12 134.744 109.52 133.472C108.92 132.176 108.62 130.64 108.62 128.864C108.62 126.992 108.944 125.384 109.592 124.04C110.24 122.672 111.116 121.628 112.22 120.908C113.348 120.164 114.608 119.792 116 119.792C116.624 119.792 117.224 119.888 117.8 120.08C118.4 120.272 118.976 120.596 119.528 121.052C120.08 121.484 120.608 122.084 121.112 122.852H121.652L121.328 124.256C120.368 123.224 119.516 122.516 118.772 122.132C118.052 121.748 117.284 121.556 116.468 121.556C115.58 121.556 114.764 121.82 114.02 122.348C113.276 122.852 112.676 123.644 112.22 124.724C111.788 125.78 111.572 127.124 111.572 128.756C111.572 130.34 111.776 131.648 112.184 132.68C112.616 133.688 113.204 134.444 113.948 134.948C114.692 135.452 115.544 135.704 116.504 135.704C117.44 135.704 118.268 135.452 118.988 134.948C119.732 134.42 120.476 133.64 121.22 132.608L121.508 134.048H121.076C120.668 134.72 120.188 135.32 119.636 135.848C119.108 136.352 118.508 136.748 117.836 137.036C117.188 137.324 116.444 137.468 115.604 137.468ZM120.824 137.36L120.608 133.796V133.724V123.248L120.644 122.852V113.24L117.728 112.772V111.8L123.092 110.288L123.524 110.576L123.38 116.516V135.596L126.116 135.992V137L120.824 137.36Z" fill="#D91254"/>
</svg>
